<svg xmlns="http://www.w3.org/2000/svg" viewBox="0 0 32 32">
  <defs>
    <linearGradient id="sh" x1="0%" y1="0%" x2="100%" y2="100%">
      <stop offset="0%" stop-color="#3D8EF8"/>
      <stop offset="60%" stop-color="#6A4FF8"/>
      <stop offset="100%" stop-color="#00C853"/>
    </linearGradient>
    <linearGradient id="hl" x1="0%" y1="0%" x2="0%" y2="100%">
      <stop offset="0%" stop-color="rgba(255,255,255,0.25)"/>
      <stop offset="100%" stop-color="rgba(255,255,255,0)"/>
    </linearGradient>
  </defs>
  <!-- Shield body -->
  <path d="M16 2 L28 7 L28 17 C28 23.5 22.5 28.5 16 31 C9.5 28.5 4 23.5 4 17 L4 7 Z" fill="url(#sh)"/>
  <!-- Inner shield gloss -->
  <path d="M16 4 L26 8.5 L26 17 C26 22.5 21.5 27 16 29.2 C10.5 27 6 22.5 6 17 L6 8.5 Z" fill="url(#hl)"/>
  <!-- H letter left bar -->
  <rect x="10" y="10" width="2.8" height="12" rx="1.2" fill="white"/>
  <!-- H letter right bar -->
  <rect x="19.2" y="10" width="2.8" height="12" rx="1.2" fill="white"/>
  <!-- H crossbar -->
  <rect x="10" y="14.8" width="12" height="2.8" rx="1.2" fill="white"/>
  <!-- Green pulse dot — connected indicator -->
  <circle cx="24.5" cy="9.5" r="2" fill="#00E87A"/>
  <circle cx="24.5" cy="9.5" r="3.2" fill="#00E87A" opacity="0.3"/>
</svg>
